# xmcd
#
# Track frame offsets: 
#        150
#        12071
#        28208
#        37874
#        50867
#        65001
#        79833
#        95464
#        105704
#        122291
#        140802
#        157481
#        172508
#        188402
#
# Disc length: 2848 seconds
#
# Revision: 0
# Processed by: cddbd v1.5.2PL0 Copyright (c) Steve Scherf et al.
# Submitted via: ExactAudioCopy v0.95b4
#
DISCID=b40b1e0e
DTITLE=Vic Ruggiero - Something in my Blindspot
DYEAR=2008
DGENRE=
TTITLE0=Taking care of business
TTITLE1=A lovely beginning
TTITLE2=Innocent girl
TTITLE3=Always something in my blindspot
TTITLE4=My place
TTITLE5=Hope I never
TTITLE6=Lonely nights
TTITLE7=Vacant stare
TTITLE8=If this night
TTITLE9=Is it you?
TTITLE10=Lonely nights reprise
TTITLE11=A love of confusion
TTITLE12=Mad at me
TTITLE13=Animals
EXTD=
EXTT0=
EXTT1=
EXTT2=
EXTT3=
EXTT4=
EXTT5=
EXTT6=
EXTT7=
EXTT8=
EXTT9=
EXTT10=
EXTT11=
EXTT12=
EXTT13=
PLAYORDER=
